<svg width="80" height="62" viewBox="0 0 80 62" fill="none" xmlns="http://www.w3.org/2000/svg">
<path d="M36.596 14.75C36.0546 14.75 35.5896 14.6365 35.2008 14.4096C34.8121 14.1826 34.5137 13.8623 34.3054 13.4488C34.1018 13.0352 34 12.551 34 11.9962C34 11.5826 34.0578 11.2069 34.1735 10.869C34.2938 10.5311 34.4651 10.2411 34.6872 9.99897C34.9139 9.75688 35.187 9.57279 35.5063 9.4467C35.8302 9.31557 36.1934 9.25 36.596 9.25C36.8089 9.25 37.0287 9.27774 37.2555 9.33322C37.4868 9.38365 37.6905 9.46183 37.8663 9.56774C37.9959 9.6434 38.0861 9.73922 38.137 9.85523C38.1879 9.97123 38.2041 10.0898 38.1856 10.2108C38.1717 10.3318 38.1324 10.4403 38.0676 10.5361C38.0028 10.6319 37.9195 10.6975 37.8177 10.7328C37.7159 10.7631 37.6048 10.7454 37.4845 10.6798C37.3457 10.6092 37.2069 10.5563 37.0681 10.521C36.9339 10.4806 36.7927 10.4605 36.6446 10.4605C36.3577 10.4605 36.1171 10.521 35.9227 10.642C35.733 10.758 35.5896 10.9295 35.4924 11.1565C35.3952 11.3834 35.3466 11.6633 35.3466 11.9962C35.3466 12.3291 35.3952 12.6115 35.4924 12.8435C35.5896 13.0705 35.733 13.2445 35.9227 13.3655C36.1171 13.4815 36.3577 13.5395 36.6446 13.5395C36.7649 13.5395 36.8945 13.5244 37.0333 13.4942C37.1722 13.4588 37.3087 13.4059 37.4429 13.3353C37.5817 13.2697 37.7043 13.2521 37.8108 13.2823C37.9218 13.3126 38.0098 13.3731 38.0745 13.4639C38.144 13.5547 38.1879 13.6606 38.2064 13.7816C38.2249 13.8976 38.2087 14.0136 38.1578 14.1296C38.1116 14.2456 38.0283 14.339 37.9079 14.4096C37.746 14.5155 37.5447 14.5987 37.3041 14.6592C37.0681 14.7197 36.832 14.75 36.596 14.75Z" fill="#0B0B0B"/>
<path fill-rule="evenodd" clip-rule="evenodd" d="M40.6855 14.75C40.1903 14.75 39.7553 14.6365 39.3805 14.4096C39.0057 14.1776 38.7141 13.8548 38.5059 13.4412C38.3023 13.0276 38.2005 12.546 38.2005 11.9962C38.2005 11.5826 38.2583 11.2069 38.374 10.869C38.4943 10.5311 38.6632 10.2411 38.8807 9.99897C39.1028 9.75688 39.3666 9.57279 39.672 9.4467C39.9775 9.31557 40.3153 9.25 40.6855 9.25C41.1806 9.25 41.6133 9.36348 41.9835 9.59044C42.3583 9.8174 42.6498 10.1377 42.8581 10.5512C43.0663 10.9598 43.1704 11.4414 43.1704 11.9962C43.1704 12.4098 43.1103 12.7855 42.99 13.1235C42.8743 13.4614 42.7054 13.7539 42.4833 14.001C42.2658 14.2431 42.0043 14.4297 41.6989 14.5609C41.3935 14.687 41.0557 14.75 40.6855 14.75ZM40.6855 13.5849C40.9307 13.5849 41.139 13.5219 41.3102 13.3958C41.4814 13.2697 41.6133 13.0881 41.7058 12.8511C41.7984 12.6141 41.8447 12.3291 41.8447 11.9962C41.8447 11.4969 41.7429 11.1086 41.5392 10.8312C41.3356 10.5538 41.051 10.4151 40.6855 10.4151C40.4448 10.4151 40.2366 10.4781 40.0607 10.6042C39.8895 10.7252 39.7576 10.9043 39.6651 11.1413C39.5725 11.3733 39.5263 11.6583 39.5263 11.9962C39.5263 12.4955 39.6281 12.8864 39.8317 13.1688C40.0353 13.4462 40.3199 13.5849 40.6855 13.5849Z" fill="#0B0B0B"/>
<path d="M43.8621 14.5382C43.9454 14.6239 44.0495 14.6668 44.1744 14.6668H45.5974C45.727 14.6668 45.8265 14.629 45.8959 14.5533C45.9653 14.4776 46 14.3717 46 14.2356C46 13.9531 45.8658 13.8119 45.5974 13.8119H44.9327L45.3683 13.3504C45.5349 13.1789 45.6529 13.0175 45.7223 12.8662C45.7918 12.7099 45.8265 12.551 45.8265 12.3896C45.8265 12.1929 45.7825 12.024 45.6946 11.8827C45.6067 11.7415 45.4817 11.6331 45.3198 11.5574C45.1578 11.4767 44.9634 11.4364 44.7367 11.4364C44.5979 11.4364 44.459 11.4515 44.3202 11.4818C44.1814 11.507 44.0541 11.5499 43.9384 11.6104C43.8227 11.6709 43.7464 11.7541 43.7094 11.86C43.6724 11.966 43.67 12.0668 43.7024 12.1627C43.7348 12.2585 43.7927 12.3316 43.876 12.382C43.9593 12.4274 44.0564 12.4224 44.1675 12.3669C44.2138 12.3467 44.2647 12.3291 44.3202 12.314C44.3757 12.2938 44.4313 12.2837 44.4868 12.2837C44.5886 12.2837 44.6626 12.3089 44.7089 12.3594C44.7598 12.4047 44.7853 12.4703 44.7853 12.5561C44.7853 12.6367 44.7645 12.7174 44.7228 12.7981C44.6858 12.8738 44.621 12.9646 44.5284 13.0705L43.9801 13.6757C43.9014 13.7514 43.8413 13.8296 43.7996 13.9102C43.758 13.9859 43.7371 14.0767 43.7371 14.1826C43.7371 14.3289 43.7788 14.4474 43.8621 14.5382Z" fill="#0B0B0B"/>
<path fill-rule="evenodd" clip-rule="evenodd" d="M40 2C38.3536 2 36.8943 2.79599 35.9841 4.02107C35.8244 4.00711 35.6629 4 35.5 4C32.4624 4 30 6.46243 30 9.5C30 10.399 30.2164 11.2494 30.6 12C30.2164 12.7506 30 13.601 30 14.5C30 17.5376 32.4624 20 35.5 20C35.6629 20 35.8244 19.9929 35.9841 19.9789C36.8943 21.204 38.3536 22 40 22C41.6464 22 43.1057 21.204 44.0159 19.9789C44.1756 19.9929 44.3371 20 44.5 20C47.5376 20 50 17.5376 50 14.5C50 13.601 49.7836 12.7506 49.4 12C49.7836 11.2494 50 10.399 50 9.5C50 6.46243 47.5376 4 44.5 4C44.3371 4 44.1756 4.00711 44.0159 4.02107C43.1057 2.79599 41.6464 2 40 2ZM37.3563 5.58026C37.8641 4.6373 38.8584 4 40 4C41.1416 4 42.1359 4.6373 42.6437 5.58026C42.8557 5.97398 43.3034 6.17907 43.74 6.08252C43.9838 6.02862 44.238 6 44.5 6C46.433 6 48 7.567 48 9.5C48 10.2209 47.7831 10.8881 47.4112 11.4437C47.1859 11.7803 47.1859 12.2196 47.4112 12.5563C47.7831 13.1118 48 13.7791 48 14.5C48 16.433 46.433 18 44.5 18C44.238 18 43.9838 17.9714 43.74 17.9175C43.3034 17.8209 42.8557 18.026 42.6437 18.4197C42.1359 19.3627 41.1416 20 40 20C38.8584 20 37.8642 19.3627 37.3563 18.4197C37.1443 18.026 36.6966 17.8209 36.26 17.9175C36.0162 17.9714 35.762 18 35.5 18C33.567 18 32 16.433 32 14.5C32 13.7791 32.2169 13.1119 32.5888 12.5563C32.8141 12.2196 32.8141 11.7804 32.5888 11.4437C32.2169 10.8881 32 10.2209 32 9.5C32 7.567 33.567 6 35.5 6C35.762 6 36.0162 6.02862 36.26 6.08252C36.6966 6.17907 37.1443 5.97398 37.3563 5.58026Z" fill="#0B0B0B"/>
<path d="M23.7168 42V33.4688H24.8652V37.125H29.2539V33.4688H30.4023V42H29.2539V38.0742H24.8652V42H23.7168ZM32.2129 39.7559V35.7656H33.3262V39.7676C33.3262 40.2715 33.4395 40.6328 33.666 40.8516C33.8965 41.0664 34.2227 41.1738 34.6445 41.1738C35.0039 41.1738 35.3203 41.0801 35.5938 40.8926C35.8672 40.7012 36.0801 40.4531 36.2324 40.1484V35.7656H37.3516V42H36.3379L36.291 41.1914H36.2617C36.0273 41.4805 35.7441 41.707 35.4121 41.8711C35.0801 42.0352 34.7129 42.1172 34.3105 42.1172C33.6699 42.1172 33.1602 41.9355 32.7812 41.5723C32.4023 41.209 32.2129 40.6035 32.2129 39.7559ZM38.7227 38.9766V38.7891C38.7227 37.8477 38.9844 37.0801 39.5078 36.4863C40.0312 35.8887 40.7246 35.5898 41.5879 35.5898C42.4512 35.5898 43.1152 35.8691 43.5801 36.4277C44.0488 36.9824 44.2832 37.7344 44.2832 38.6836V39.1406H39.4082V38.2559H43.1582V38.168C43.1582 37.6992 43.0312 37.3047 42.7773 36.9844C42.5234 36.6641 42.1367 36.5039 41.6172 36.5039C41.0352 36.5039 40.5957 36.7246 40.2988 37.166C40.0059 37.6074 39.8594 38.1484 39.8594 38.7891V38.9766C39.8594 39.6172 40.0137 40.1582 40.3223 40.5996C40.6348 41.041 41.1172 41.2617 41.7695 41.2617C42.1719 41.2617 42.5176 41.1758 42.8066 41.0039C43.0957 40.832 43.3301 40.6289 43.5098 40.3945L44.2305 40.9746C44.0312 41.2676 43.7207 41.541 43.2988 41.7949C42.8809 42.0488 42.3711 42.1758 41.7695 42.1758C40.7852 42.1758 40.0312 41.8789 39.5078 41.2852C38.9844 40.6875 38.7227 39.918 38.7227 38.9766ZM45.666 42V33H46.7793V42H45.666ZM48.6074 42V33H49.7207V42H48.6074ZM51.1621 40.166C51.1621 39.5332 51.416 39.041 51.9238 38.6895C52.4355 38.334 53.0859 38.1562 53.875 38.1562H55.3164V37.7109C55.3164 37.3438 55.2168 37.0469 55.0176 36.8203C54.8184 36.5898 54.4766 36.4746 53.9922 36.4746C53.5078 36.4746 53.1602 36.5723 52.9492 36.7676C52.7422 36.9629 52.6387 37.1895 52.6387 37.4473V37.4766H51.5312V37.4473C51.5312 36.9512 51.7559 36.5176 52.2051 36.1465C52.6543 35.7754 53.2598 35.5898 54.0215 35.5898C54.7871 35.5898 55.3789 35.7676 55.7969 36.123C56.2188 36.4785 56.4297 37.0078 56.4297 37.7109V40.5938C56.4297 40.8477 56.4492 41.0879 56.4883 41.3145C56.5273 41.5371 56.584 41.7344 56.6582 41.9062V42H55.5801C55.5215 41.9023 55.4688 41.7734 55.4219 41.6133C55.3789 41.4531 55.3516 41.2949 55.3398 41.1387C55.1914 41.3965 54.9492 41.625 54.6133 41.8242C54.2812 42.0195 53.8516 42.1172 53.3242 42.1172C52.7266 42.1172 52.2168 41.9492 51.7949 41.6133C51.373 41.2773 51.1621 40.7949 51.1621 40.166ZM52.2754 40.1074C52.2754 40.459 52.3809 40.7344 52.5918 40.9336C52.8027 41.1289 53.1289 41.2266 53.5703 41.2266C54.0156 41.2266 54.418 41.0781 54.7773 40.7812C55.1367 40.4844 55.3164 40.1699 55.3164 39.8379V38.9531H53.9922C53.4297 38.9531 53.002 39.0566 52.709 39.2637C52.4199 39.4707 52.2754 39.752 52.2754 40.1074ZM17.9863 54.9766V54.7891C17.9863 53.8477 18.2461 53.0801 18.7656 52.4863C19.2852 51.8887 20.002 51.5898 20.916 51.5898C21.7598 51.5898 22.4004 51.8145 22.8379 52.2637C23.2754 52.709 23.4941 53.207 23.4941 53.7578V53.7871H22.416V53.7578C22.416 53.4297 22.2969 53.1387 22.0586 52.8848C21.8203 52.6309 21.4395 52.5039 20.916 52.5039C20.3027 52.5039 19.8496 52.7246 19.5566 53.166C19.2676 53.6074 19.123 54.1484 19.123 54.7891V54.9766C19.123 55.6172 19.2676 56.1582 19.5566 56.5996C19.8496 57.041 20.3027 57.2617 20.916 57.2617C21.4395 57.2617 21.8203 57.1348 22.0586 56.8809C22.2969 56.627 22.416 56.334 22.416 56.002V55.9727H23.4941V56.002C23.4941 56.5566 23.2754 57.0586 22.8379 57.5078C22.4004 57.9531 21.7598 58.1758 20.916 58.1758C20.002 58.1758 19.2852 57.8789 18.7656 57.2852C18.2461 56.6875 17.9863 55.918 17.9863 54.9766ZM24.4375 56.166C24.4375 55.5332 24.6914 55.041 25.1992 54.6895C25.7109 54.334 26.3613 54.1562 27.1504 54.1562H28.5918V53.7109C28.5918 53.3438 28.4922 53.0469 28.293 52.8203C28.0938 52.5898 27.752 52.4746 27.2676 52.4746C26.7832 52.4746 26.4355 52.5723 26.2246 52.7676C26.0176 52.9629 25.9141 53.1895 25.9141 53.4473V53.4766H24.8066V53.4473C24.8066 52.9512 25.0312 52.5176 25.4805 52.1465C25.9297 51.7754 26.5352 51.5898 27.2969 51.5898C28.0625 51.5898 28.6543 51.7676 29.0723 52.123C29.4941 52.4785 29.7051 53.0078 29.7051 53.7109V56.5938C29.7051 56.8477 29.7246 57.0879 29.7637 57.3145C29.8027 57.5371 29.8594 57.7344 29.9336 57.9062V58H28.8555C28.7969 57.9023 28.7441 57.7734 28.6973 57.6133C28.6543 57.4531 28.627 57.2949 28.6152 57.1387C28.4668 57.3965 28.2246 57.625 27.8887 57.8242C27.5566 58.0195 27.127 58.1172 26.5996 58.1172C26.002 58.1172 25.4922 57.9492 25.0703 57.6133C24.6484 57.2773 24.4375 56.7949 24.4375 56.166ZM25.5508 56.1074C25.5508 56.459 25.6562 56.7344 25.8672 56.9336C26.0781 57.1289 26.4043 57.2266 26.8457 57.2266C27.291 57.2266 27.6934 57.0781 28.0527 56.7812C28.4121 56.4844 28.5918 56.1699 28.5918 55.8379V54.9531H27.2676C26.7051 54.9531 26.2773 55.0566 25.9844 55.2637C25.6953 55.4707 25.5508 55.752 25.5508 56.1074ZM31.4219 58V51.7656H32.4297L32.4766 52.5684H32.5117C32.6719 52.3066 32.8828 52.0781 33.1445 51.8828C33.4102 51.6875 33.7246 51.5898 34.0879 51.5898C34.1738 51.5898 34.2637 51.5996 34.3574 51.6191C34.4551 51.6387 34.5234 51.6562 34.5625 51.6719V52.709C34.4844 52.6934 34.4004 52.6816 34.3105 52.6738C34.2246 52.666 34.1289 52.6621 34.0234 52.6621C33.6602 52.6621 33.3516 52.7559 33.0977 52.9434C32.8438 53.1309 32.6562 53.3613 32.5352 53.6348V58H31.4219ZM35.6055 58V49H36.7188V52.498C36.9062 52.2402 37.1562 52.0352 37.4688 51.8828C37.7812 51.7266 38.1602 51.6484 38.6055 51.6484C39.4062 51.6484 40.0469 51.9453 40.5273 52.5391C41.0078 53.1289 41.248 53.8789 41.248 54.7891V54.9766C41.248 55.8828 41.0078 56.6328 40.5273 57.2266C40.0469 57.8203 39.4062 58.1172 38.6055 58.1172C38.1602 58.1172 37.7695 58.0273 37.4336 57.8477C37.1016 57.6641 36.8555 57.4434 36.6953 57.1855H36.6602L36.6133 58H35.6055ZM36.7188 56.1367C36.8438 56.4102 37.0469 56.6562 37.3281 56.875C37.6133 57.0898 37.957 57.1973 38.3594 57.1973C38.9648 57.1973 39.4082 56.9844 39.6895 56.5586C39.9707 56.1289 40.1113 55.6016 40.1113 54.9766V54.7891C40.1113 54.1602 39.9707 53.6328 39.6895 53.207C39.4082 52.7773 38.9648 52.5625 38.3594 52.5625C37.957 52.5625 37.6133 52.6719 37.3281 52.8906C37.0469 53.1055 36.8438 53.3516 36.7188 53.6289V56.1367ZM42.2441 54.9766V54.7891C42.2441 53.8477 42.5156 53.0801 43.0586 52.4863C43.6016 51.8887 44.3262 51.5898 45.2324 51.5898C46.1387 51.5898 46.8633 51.8887 47.4062 52.4863C47.9492 53.0801 48.2207 53.8477 48.2207 54.7891V54.9766C48.2207 55.918 47.9492 56.6875 47.4062 57.2852C46.8633 57.8789 46.1387 58.1758 45.2324 58.1758C44.3262 58.1758 43.6016 57.8789 43.0586 57.2852C42.5156 56.6875 42.2441 55.918 42.2441 54.9766ZM43.3809 54.7891V54.9766C43.3809 55.6133 43.5352 56.1523 43.8438 56.5938C44.1562 57.0352 44.6191 57.2559 45.2324 57.2559C45.8457 57.2559 46.3066 57.0352 46.6152 56.5938C46.9238 56.1523 47.0781 55.6133 47.0781 54.9766V54.7891C47.0781 54.1484 46.9238 53.6074 46.6152 53.166C46.3066 52.7246 45.8457 52.5039 45.2324 52.5039C44.6191 52.5039 44.1562 52.7246 43.8438 53.166C43.5352 53.6074 43.3809 54.1484 43.3809 54.7891ZM49.5859 58V51.7656H50.5938L50.6406 52.5742H50.6758C50.9062 52.2812 51.1875 52.0547 51.5195 51.8945C51.8516 51.7305 52.2207 51.6484 52.627 51.6484C53.2637 51.6484 53.7715 51.8301 54.1504 52.1934C54.5332 52.5527 54.7246 53.1582 54.7246 54.0098V58H53.6055V53.998C53.6055 53.4941 53.4902 53.1328 53.2598 52.9141C53.0332 52.6953 52.7109 52.5859 52.293 52.5859C51.9336 52.5859 51.6172 52.6816 51.3438 52.873C51.0703 53.0645 50.8555 53.3105 50.6992 53.6113V58H49.5859ZM56.0371 54.9766V54.7891C56.0371 53.8477 56.3086 53.0801 56.8516 52.4863C57.3945 51.8887 58.1191 51.5898 59.0254 51.5898C59.9316 51.5898 60.6562 51.8887 61.1992 52.4863C61.7422 53.0801 62.0137 53.8477 62.0137 54.7891V54.9766C62.0137 55.918 61.7422 56.6875 61.1992 57.2852C60.6562 57.8789 59.9316 58.1758 59.0254 58.1758C58.1191 58.1758 57.3945 57.8789 56.8516 57.2852C56.3086 56.6875 56.0371 55.918 56.0371 54.9766ZM57.1738 54.7891V54.9766C57.1738 55.6133 57.3281 56.1523 57.6367 56.5938C57.9492 57.0352 58.4121 57.2559 59.0254 57.2559C59.6387 57.2559 60.0996 57.0352 60.4082 56.5938C60.7168 56.1523 60.8711 55.6133 60.8711 54.9766V54.7891C60.8711 54.1484 60.7168 53.6074 60.4082 53.166C60.0996 52.7246 59.6387 52.5039 59.0254 52.5039C58.4121 52.5039 57.9492 52.7246 57.6367 53.166C57.3281 53.6074 57.1738 54.1484 57.1738 54.7891Z" fill="#0B0B0B"/>
</svg>
