<svg width="148" height="148" viewBox="0 0 148 148" fill="none" xmlns="http://www.w3.org/2000/svg">
<path d="M48.8107 94.35C44.8042 94.35 41.3627 93.5103 38.4862 91.8307C35.6098 90.1512 33.4011 87.7813 31.8601 84.7208C30.3534 81.6604 29.6 78.0775 29.6 73.972C29.6 70.9116 30.028 68.1311 30.8841 65.6305C31.7745 63.1299 33.0415 60.9838 34.6852 59.1924C36.3631 57.4009 38.3835 56.0386 40.7463 55.1056C43.1434 54.1352 45.8315 53.65 48.8107 53.65C50.3859 53.65 52.0125 53.8553 53.6905 54.2658C55.4026 54.639 56.9094 55.2175 58.2106 56.0013C59.1695 56.5611 59.8372 57.2703 60.2139 58.1287C60.5906 58.9871 60.7104 59.8642 60.5735 60.7599C60.4707 61.6556 60.1797 62.4581 59.7002 63.1672C59.2208 63.8763 58.6044 64.3615 57.8511 64.6228C57.0977 64.8467 56.2759 64.7161 55.3855 64.2309C54.3582 63.7084 53.3309 63.3165 52.3036 63.0552C51.3105 62.7566 50.2661 62.6074 49.1703 62.6074C47.0472 62.6074 45.2665 63.0552 43.8283 63.951C42.4243 64.8094 41.3627 66.0783 40.6436 67.7578C39.9245 69.4373 39.5649 71.5087 39.5649 73.972C39.5649 76.4353 39.9245 78.5253 40.6436 80.2422C41.3627 81.9217 42.4243 83.2093 43.8283 84.105C45.2665 84.9634 47.0472 85.3926 49.1703 85.3926C50.0606 85.3926 51.0195 85.2807 52.0468 85.0567C53.0741 84.7955 54.0843 84.4036 55.0773 83.8811C56.1046 83.3959 57.0121 83.2653 57.7997 83.4892C58.6216 83.7131 59.2722 84.161 59.7516 84.8328C60.2653 85.5046 60.5906 86.2884 60.7276 87.1841C60.8645 88.0425 60.7447 88.9009 60.368 89.7594C60.0256 90.6178 59.4092 91.3082 58.5188 91.8307C57.3203 92.6145 55.8307 93.2303 54.05 93.6782C52.3036 94.1261 50.5572 94.35 48.8107 94.35Z" fill="#36803A"/>
<path fill-rule="evenodd" clip-rule="evenodd" d="M79.0724 94.35C75.4083 94.35 72.1894 93.5103 69.4157 91.8307C66.642 90.1139 64.4846 87.7253 62.9436 84.6649C61.4369 81.6044 60.6835 78.0401 60.6835 73.972C60.6835 70.9116 61.1116 68.1311 61.9677 65.6305C62.858 63.1299 64.1079 60.9838 65.7174 59.1924C67.3611 57.4009 69.313 56.0386 71.573 55.1056C73.8331 54.1352 76.3329 53.65 79.0724 53.65C82.7365 53.65 85.9383 54.4898 88.6778 56.1693C91.4515 57.8488 93.6089 60.2187 95.1498 63.2792C96.6908 66.3023 97.4613 69.8665 97.4613 73.972C97.4613 77.0324 97.0161 79.813 96.1258 82.3136C95.2697 84.8141 94.0198 86.9788 92.3761 88.8076C90.7667 90.5991 88.8319 91.98 86.5718 92.9504C84.3117 93.8835 81.8119 94.35 79.0724 94.35ZM79.0724 85.7285C80.8873 85.7285 82.4283 85.262 83.6953 84.329C84.9623 83.3959 85.9383 82.0523 86.6232 80.2981C87.308 78.544 87.6505 76.4353 87.6505 73.972C87.6505 70.2771 86.8971 67.4033 85.3904 65.3506C83.8837 63.2978 81.7777 62.2715 79.0724 62.2715C77.2917 62.2715 75.7508 62.738 74.4495 63.671C73.1825 64.5668 72.2066 65.8917 71.5217 67.6459C70.8368 69.3627 70.4944 71.4714 70.4944 73.972C70.4944 77.6669 71.2477 80.5594 72.7544 82.6494C74.2612 84.7022 76.3672 85.7285 79.0724 85.7285Z" fill="#36803A"/>
<path d="M102.579 92.7825C103.196 93.4169 103.966 93.7342 104.891 93.7342H115.421C116.38 93.7342 117.116 93.4543 117.63 92.8944C118.143 92.3346 118.4 91.5508 118.4 90.5431C118.4 88.4531 117.407 87.4081 115.421 87.4081H110.502L113.726 83.993C114.959 82.7241 115.832 81.5298 116.345 80.4101C116.859 79.2531 117.116 78.0775 117.116 76.8832C117.116 75.4276 116.791 74.1773 116.14 73.1323C115.489 72.0872 114.565 71.2848 113.366 70.725C112.168 70.1278 110.729 69.8292 109.051 69.8292C108.024 69.8292 106.997 69.9412 105.97 70.1651C104.942 70.3517 104.001 70.669 103.144 71.1169C102.288 71.5647 101.723 72.1805 101.449 72.9643C101.175 73.7481 101.158 74.4945 101.398 75.2036C101.638 75.9128 102.066 76.4539 102.682 76.8272C103.299 77.1631 104.018 77.1257 104.839 76.7152C105.182 76.5659 105.559 76.4353 105.97 76.3233C106.38 76.174 106.791 76.0994 107.202 76.0994C107.956 76.0994 108.504 76.286 108.846 76.6592C109.223 76.9951 109.411 77.4803 109.411 78.1148C109.411 78.7119 109.257 79.3091 108.949 79.9063C108.675 80.4661 108.195 81.1379 107.51 81.9217L103.453 86.4003C102.87 86.9602 102.425 87.5387 102.117 88.1358C101.809 88.6957 101.655 89.3675 101.655 90.1512C101.655 91.2336 101.963 92.1107 102.579 92.7825Z" fill="#36803A"/>
<path fill-rule="evenodd" clip-rule="evenodd" d="M74 0C61.8168 0 51.0177 5.89031 44.2821 14.9559C43.1005 14.8526 41.9057 14.8 40.7 14.8C18.222 14.8 0 33.022 0 55.5C0 62.1525 1.60113 68.4453 4.4397 74C1.60113 79.5548 0 85.8475 0 92.5C0 114.978 18.222 133.2 40.7 133.2C41.9057 133.2 43.1006 133.147 44.2821 133.044C51.0177 142.11 61.8168 148 74 148C86.1832 148 96.9823 142.11 103.718 133.044C104.899 133.147 106.094 133.2 107.3 133.2C129.778 133.2 148 114.978 148 92.5C148 85.8475 146.399 79.5547 143.56 74C146.399 68.4453 148 62.1525 148 55.5C148 33.022 129.778 14.8 107.3 14.8C106.094 14.8 104.899 14.8526 103.718 14.9559C96.9824 5.89031 86.1832 0 74 0ZM54.4368 26.4939C58.1947 19.516 65.5522 14.8 74 14.8C82.4478 14.8 89.8053 19.516 93.5632 26.4939C95.1322 29.4075 98.4449 30.9251 101.676 30.2107C103.48 29.8118 105.361 29.6 107.3 29.6C121.604 29.6 133.2 41.1958 133.2 55.5C133.2 60.8348 131.595 65.7722 128.843 69.8836C127.176 72.3746 127.176 75.6254 128.843 78.1163C131.595 82.2277 133.2 87.1652 133.2 92.5C133.2 106.804 121.604 118.4 107.3 118.4C105.361 118.4 103.48 118.188 101.676 117.789C98.4449 117.075 95.1322 118.593 93.5632 121.506C89.8053 128.484 82.4478 133.2 74 133.2C65.5522 133.2 58.1947 128.484 54.4368 121.506C52.8678 118.593 49.5551 117.075 46.324 117.789C44.52 118.188 42.6391 118.4 40.7 118.4C26.3958 118.4 14.8 106.804 14.8 92.5C14.8 87.1652 16.4049 82.2277 19.157 78.1163C20.8244 75.6254 20.8244 72.3746 19.157 69.8837C16.4049 65.7723 14.8 60.8348 14.8 55.5C14.8 41.1958 26.3958 29.6 40.7 29.6C42.639 29.6 44.5199 29.8118 46.3239 30.2107C49.5551 30.9251 52.8678 29.4075 54.4368 26.4939Z" fill="#36803A"/>
</svg>
