<svg width="80" height="62" viewBox="0 0 80 62" fill="none" xmlns="http://www.w3.org/2000/svg">
<path fill-rule="evenodd" clip-rule="evenodd" d="M47 1H46.25C44.8797 1 43.7447 1.06404 42.823 1.26391C41.8911 1.46604 41.121 1.81895 40.5412 2.43681C40.1331 2.87182 39.8566 3.39851 39.6676 4.00417C39.2196 3.57799 38.649 3.33456 37.9921 3.19354C37.3094 3.04698 36.4807 3 35.5 3H34.75V3.75C34.75 4.69591 34.789 5.50622 34.9239 6.17944C35.0605 6.86052 35.3063 7.45951 35.7631 7.92739C36.2208 8.39624 36.8166 8.65805 37.5079 8.80647C38.0091 8.91406 38.589 8.96798 39.25 8.98905V10.7831C35.9934 11.0719 33.2738 13.2232 32.1642 16.1627C31.6297 16.3513 31.268 16.669 30.9754 16.9259L30.9635 16.9364C30.5569 17.2934 30.3112 17.5 29.75 17.5H29V19H29.75C30.8869 19 31.4948 18.4662 31.9413 18.074L31.9532 18.0636C32.3597 17.7066 32.6054 17.5 33.1666 17.5C33.7278 17.5 33.9735 17.7066 34.3801 18.0636L34.392 18.0741C34.8385 18.4662 35.4464 19 36.5832 19C37.7201 19 38.328 18.4662 38.7745 18.0741L38.7864 18.0636C39.193 17.7066 39.4387 17.5 39.9999 17.5C40.5611 17.5 40.8068 17.7066 41.2134 18.0636L41.2254 18.0741C41.6719 18.4662 42.2797 19 43.4166 19C44.5534 19 45.1613 18.4662 45.6078 18.0741L45.6197 18.0636C46.0263 17.7066 46.272 17.5 46.8332 17.5C47.3944 17.5 47.6401 17.7066 48.0468 18.0636L48.0587 18.0741C48.5052 18.4662 49.1131 19 50.25 19H51V17.5H50.25C49.6887 17.5 49.443 17.2934 49.0364 16.9364L49.0244 16.9259C48.732 16.669 48.3703 16.3514 47.836 16.1628C46.7264 13.2232 44.0067 11.0718 40.75 10.7831V8.99269C41.7906 8.97103 42.6791 8.89828 43.427 8.73609C44.3589 8.53396 45.129 8.18105 45.7088 7.56319C46.2848 6.94931 46.5984 6.15282 46.7745 5.20951C46.9495 4.27203 47 3.12444 47 1.75V1ZM45.4938 2.50785C45.4761 3.50194 45.4193 4.29516 45.3 4.93424C45.1529 5.72218 44.9225 6.20902 44.6149 6.53681C44.3111 6.86062 43.8581 7.1077 43.109 7.27016C42.4992 7.40242 41.7317 7.47047 40.7562 7.49215C40.7739 6.49806 40.8307 5.70484 40.95 5.06576C41.0971 4.27782 41.3275 3.79098 41.6351 3.46319C41.9389 3.13938 42.3919 2.8923 43.141 2.72984C43.7508 2.59758 44.5183 2.52953 45.4938 2.50785ZM40.0001 12.25C37.2998 12.25 34.9623 13.8057 33.839 16.0692C34.561 16.2262 35.0087 16.6194 35.3578 16.9259L35.3697 16.9364C35.7763 17.2934 36.022 17.5 36.5832 17.5C37.1444 17.5 37.3901 17.2934 37.7967 16.9364L37.8087 16.9259C38.2552 16.5338 38.863 16 39.9999 16C41.1368 16 41.7446 16.5338 42.1911 16.9259L42.2031 16.9364C42.6097 17.2934 42.8554 17.5 43.4166 17.5C43.9778 17.5 44.2235 17.2934 44.6301 16.9364L44.642 16.9259C44.9912 16.6193 45.4389 16.2261 46.1611 16.0692C45.0378 13.8057 42.7004 12.25 40.0001 12.25ZM36.3947 5.8846C36.3211 5.51778 36.2795 5.06858 36.2612 4.51224C36.8412 4.53278 37.3041 4.58002 37.6772 4.66012C38.1922 4.77068 38.4797 4.93214 38.6636 5.12047C38.8484 5.30976 39.0024 5.60187 39.1053 6.1154C39.1789 6.48222 39.2205 6.93142 39.2388 7.48776C38.6588 7.46722 38.1959 7.41998 37.8228 7.33988C37.3078 7.22932 37.0203 7.06786 36.8364 6.87953C36.6516 6.69024 36.4976 6.39813 36.3947 5.8846Z" fill="#0B0B0B"/>
<path d="M29.75 23C30.8869 23 31.4948 22.4662 31.9413 22.074L31.9532 22.0636C32.3597 21.7066 32.6054 21.5 33.1666 21.5C33.7278 21.5 33.9735 21.7066 34.3801 22.0636L34.392 22.0741C34.8385 22.4662 35.4464 23 36.5832 23C37.7201 23 38.328 22.4662 38.7745 22.0741L38.7864 22.0636C39.193 21.7066 39.4387 21.5 39.9999 21.5C40.5611 21.5 40.8068 21.7066 41.2134 22.0636L41.2254 22.0741C41.6719 22.4662 42.2797 23 43.4166 23C44.5534 23 45.1613 22.4662 45.6078 22.0741L45.6197 22.0636C46.0263 21.7066 46.272 21.5 46.8332 21.5C47.3944 21.5 47.6401 21.7066 48.0468 22.0636L48.0587 22.0741C48.5052 22.4662 49.1131 23 50.25 23H51V21.5H50.25C49.6887 21.5 49.443 21.2934 49.0364 20.9364L49.0244 20.9259C48.5779 20.5338 47.9701 20 46.8332 20C45.6964 20 45.0885 20.5338 44.642 20.9259L44.6301 20.9364C44.2235 21.2934 43.9778 21.5 43.4166 21.5C42.8554 21.5 42.6097 21.2934 42.2031 20.9364L42.1911 20.9259C41.7446 20.5338 41.1368 20 39.9999 20C38.863 20 38.2552 20.5338 37.8087 20.9259L37.7967 20.9364C37.3901 21.2934 37.1444 21.5 36.5832 21.5C36.022 21.5 35.7763 21.2934 35.3697 20.9364L35.3578 20.9259C34.9113 20.5338 34.3034 20 33.1666 20C32.0297 20 31.4219 20.5338 30.9754 20.9259L30.9635 20.9364C30.5569 21.2934 30.3112 21.5 29.75 21.5H29V23H29.75Z" fill="#0B0B0B"/>
<path d="M10.3457 37.9922V37.4766C10.3457 36.1602 10.6895 35.1348 11.377 34.4004C12.0645 33.6621 12.9258 33.293 13.9609 33.293C15 33.293 15.8066 33.5723 16.3809 34.1309C16.9551 34.6895 17.2559 35.3633 17.2832 36.1523V36.2109H16.1348V36.1523C16.1191 35.6367 15.9336 35.1973 15.5781 34.834C15.2266 34.4668 14.6875 34.2832 13.9609 34.2832C13.25 34.2832 12.6621 34.5527 12.1973 35.0918C11.7363 35.627 11.5059 36.4219 11.5059 37.4766V37.9922C11.5059 38.9883 11.7363 39.7695 12.1973 40.3359C12.6582 40.9023 13.2461 41.1855 13.9609 41.1855C14.6602 41.1855 15.1836 41.002 15.5312 40.6348C15.8789 40.2637 16.0781 39.8242 16.1289 39.3164L16.1348 39.2578H17.2832L17.2773 39.3164C17.1992 40.1016 16.8867 40.7754 16.3398 41.3379C15.793 41.8965 15 42.1758 13.9609 42.1758C12.9258 42.1758 12.0645 41.8086 11.377 41.0742C10.6895 40.3359 10.3457 39.3086 10.3457 37.9922ZM18.291 38.9766V38.7891C18.291 37.8477 18.5625 37.0801 19.1055 36.4863C19.6484 35.8887 20.373 35.5898 21.2793 35.5898C22.1855 35.5898 22.9102 35.8887 23.4531 36.4863C23.9961 37.0801 24.2676 37.8477 24.2676 38.7891V38.9766C24.2676 39.918 23.9961 40.6875 23.4531 41.2852C22.9102 41.8789 22.1855 42.1758 21.2793 42.1758C20.373 42.1758 19.6484 41.8789 19.1055 41.2852C18.5625 40.6875 18.291 39.918 18.291 38.9766ZM19.4277 38.7891V38.9766C19.4277 39.6133 19.582 40.1523 19.8906 40.5938C20.2031 41.0352 20.666 41.2559 21.2793 41.2559C21.8926 41.2559 22.3535 41.0352 22.6621 40.5938C22.9707 40.1523 23.125 39.6133 23.125 38.9766V38.7891C23.125 38.1484 22.9707 37.6074 22.6621 37.166C22.3535 36.7246 21.8926 36.5039 21.2793 36.5039C20.666 36.5039 20.2031 36.7246 19.8906 37.166C19.582 37.6074 19.4277 38.1484 19.4277 38.7891ZM25.6328 42V35.7656H26.6406L26.6875 36.5742H26.7227C26.9531 36.2812 27.2344 36.0547 27.5664 35.8945C27.8984 35.7305 28.2676 35.6484 28.6738 35.6484C29.3105 35.6484 29.8184 35.8301 30.1973 36.1934C30.5801 36.5527 30.7715 37.1582 30.7715 38.0098V42H29.6523V37.998C29.6523 37.4941 29.5371 37.1328 29.3066 36.9141C29.0801 36.6953 28.7578 36.5859 28.3398 36.5859C27.9805 36.5859 27.6641 36.6816 27.3906 36.873C27.1172 37.0645 26.9023 37.3105 26.7461 37.6113V42H25.6328ZM32.084 38.9766V38.7891C32.084 37.8477 32.3438 37.0801 32.8633 36.4863C33.3828 35.8887 34.0996 35.5898 35.0137 35.5898C35.8574 35.5898 36.498 35.8145 36.9355 36.2637C37.373 36.709 37.5918 37.207 37.5918 37.7578V37.7871H36.5137V37.7578C36.5137 37.4297 36.3945 37.1387 36.1562 36.8848C35.918 36.6309 35.5371 36.5039 35.0137 36.5039C34.4004 36.5039 33.9473 36.7246 33.6543 37.166C33.3652 37.6074 33.2207 38.1484 33.2207 38.7891V38.9766C33.2207 39.6172 33.3652 40.1582 33.6543 40.5996C33.9473 41.041 34.4004 41.2617 35.0137 41.2617C35.5371 41.2617 35.918 41.1348 36.1562 40.8809C36.3945 40.627 36.5137 40.334 36.5137 40.002V39.9727H37.5918V40.002C37.5918 40.5566 37.373 41.0586 36.9355 41.5078C36.498 41.9531 35.8574 42.1758 35.0137 42.1758C34.0996 42.1758 33.3828 41.8789 32.8633 41.2852C32.3438 40.6875 32.084 39.918 32.084 38.9766ZM38.9277 42V35.7656H40.041V42H38.9277ZM38.7988 33.9141C38.7988 33.7305 38.8574 33.5762 38.9746 33.4512C39.0957 33.3223 39.2656 33.2578 39.4844 33.2578C39.7031 33.2578 39.8711 33.3223 39.9883 33.4512C40.1094 33.5762 40.1699 33.7305 40.1699 33.9141C40.1699 34.1016 40.1094 34.2598 39.9883 34.3887C39.8711 34.5137 39.7031 34.5762 39.4844 34.5762C39.2656 34.5762 39.0957 34.5137 38.9746 34.3887C38.8574 34.2598 38.7988 34.1016 38.7988 33.9141ZM41.459 38.9766V38.7891C41.459 37.8477 41.7207 37.0801 42.2441 36.4863C42.7676 35.8887 43.4609 35.5898 44.3242 35.5898C45.1875 35.5898 45.8516 35.8691 46.3164 36.4277C46.7852 36.9824 47.0195 37.7344 47.0195 38.6836V39.1406H42.1445V38.2559H45.8945V38.168C45.8945 37.6992 45.7676 37.3047 45.5137 36.9844C45.2598 36.6641 44.873 36.5039 44.3535 36.5039C43.7715 36.5039 43.332 36.7246 43.0352 37.166C42.7422 37.6074 42.5957 38.1484 42.5957 38.7891V38.9766C42.5957 39.6172 42.75 40.1582 43.0586 40.5996C43.3711 41.041 43.8535 41.2617 44.5059 41.2617C44.9082 41.2617 45.2539 41.1758 45.543 41.0039C45.832 40.832 46.0664 40.6289 46.2461 40.3945L46.9668 40.9746C46.7676 41.2676 46.457 41.541 46.0352 41.7949C45.6172 42.0488 45.1074 42.1758 44.5059 42.1758C43.5215 42.1758 42.7676 41.8789 42.2441 41.2852C41.7207 40.6875 41.459 39.918 41.459 38.9766ZM48.3555 42V35.7656H49.3633L49.4102 36.5742H49.4453C49.6758 36.2812 49.957 36.0547 50.2891 35.8945C50.6211 35.7305 50.9902 35.6484 51.3965 35.6484C52.0332 35.6484 52.541 35.8301 52.9199 36.1934C53.3027 36.5527 53.4941 37.1582 53.4941 38.0098V42H52.375V37.998C52.375 37.4941 52.2598 37.1328 52.0293 36.9141C51.8027 36.6953 51.4805 36.5859 51.0625 36.5859C50.7031 36.5859 50.3867 36.6816 50.1133 36.873C49.8398 37.0645 49.625 37.3105 49.4688 37.6113V42H48.3555ZM54.8066 38.9766V38.7891C54.8066 37.8477 55.0664 37.0801 55.5859 36.4863C56.1055 35.8887 56.8223 35.5898 57.7363 35.5898C58.5801 35.5898 59.2207 35.8145 59.6582 36.2637C60.0957 36.709 60.3145 37.207 60.3145 37.7578V37.7871H59.2363V37.7578C59.2363 37.4297 59.1172 37.1387 58.8789 36.8848C58.6406 36.6309 58.2598 36.5039 57.7363 36.5039C57.123 36.5039 56.6699 36.7246 56.377 37.166C56.0879 37.6074 55.9434 38.1484 55.9434 38.7891V38.9766C55.9434 39.6172 56.0879 40.1582 56.377 40.5996C56.6699 41.041 57.123 41.2617 57.7363 41.2617C58.2598 41.2617 58.6406 41.1348 58.8789 40.8809C59.1172 40.627 59.2363 40.334 59.2363 40.002V39.9727H60.3145V40.002C60.3145 40.5566 60.0957 41.0586 59.6582 41.5078C59.2207 41.9531 58.5801 42.1758 57.7363 42.1758C56.8223 42.1758 56.1055 41.8789 55.5859 41.2852C55.0664 40.6875 54.8066 39.918 54.8066 38.9766ZM61.6504 42V35.7656H62.7637V42H61.6504ZM61.5215 33.9141C61.5215 33.7305 61.5801 33.5762 61.6973 33.4512C61.8184 33.3223 61.9883 33.2578 62.207 33.2578C62.4258 33.2578 62.5938 33.3223 62.7109 33.4512C62.832 33.5762 62.8926 33.7305 62.8926 33.9141C62.8926 34.1016 62.832 34.2598 62.7109 34.3887C62.5938 34.5137 62.4258 34.5762 62.207 34.5762C61.9883 34.5762 61.8184 34.5137 61.6973 34.3887C61.5801 34.2598 61.5215 34.1016 61.5215 33.9141ZM64.2109 40.166C64.2109 39.5332 64.4648 39.041 64.9727 38.6895C65.4844 38.334 66.1348 38.1562 66.9238 38.1562H68.3652V37.7109C68.3652 37.3438 68.2656 37.0469 68.0664 36.8203C67.8672 36.5898 67.5254 36.4746 67.041 36.4746C66.5566 36.4746 66.209 36.5723 65.998 36.7676C65.791 36.9629 65.6875 37.1895 65.6875 37.4473V37.4766H64.5801V37.4473C64.5801 36.9512 64.8047 36.5176 65.2539 36.1465C65.7031 35.7754 66.3086 35.5898 67.0703 35.5898C67.8359 35.5898 68.4277 35.7676 68.8457 36.123C69.2676 36.4785 69.4785 37.0078 69.4785 37.7109V40.5938C69.4785 40.8477 69.498 41.0879 69.5371 41.3145C69.5762 41.5371 69.6328 41.7344 69.707 41.9062V42H68.6289C68.5703 41.9023 68.5176 41.7734 68.4707 41.6133C68.4277 41.4531 68.4004 41.2949 68.3887 41.1387C68.2402 41.3965 67.998 41.625 67.6621 41.8242C67.3301 42.0195 66.9004 42.1172 66.373 42.1172C65.7754 42.1172 65.2656 41.9492 64.8438 41.6133C64.4219 41.2773 64.2109 40.7949 64.2109 40.166ZM65.3242 40.1074C65.3242 40.459 65.4297 40.7344 65.6406 40.9336C65.8516 41.1289 66.1777 41.2266 66.6191 41.2266C67.0645 41.2266 67.4668 41.0781 67.8262 40.7812C68.1855 40.4844 68.3652 40.1699 68.3652 39.8379V38.9531H67.041C66.4785 38.9531 66.0508 39.0566 65.7578 39.2637C65.4688 39.4707 65.3242 39.752 65.3242 40.1074ZM24.2676 49.4688H25.4922L27.7773 55.7559C27.8281 55.8887 27.8711 56.0117 27.9062 56.125C27.9414 56.2383 27.9766 56.3574 28.0117 56.4824H28.0645C28.0996 56.3574 28.1348 56.2383 28.1699 56.125C28.209 56.0117 28.2539 55.8887 28.3047 55.7559L30.6133 49.4688H31.7793L28.5508 58.0586H27.4961L24.2676 49.4688ZM32.1016 54.9766V54.7891C32.1016 53.8477 32.3633 53.0801 32.8867 52.4863C33.4102 51.8887 34.1035 51.5898 34.9668 51.5898C35.8301 51.5898 36.4941 51.8691 36.959 52.4277C37.4277 52.9824 37.6621 53.7344 37.6621 54.6836V55.1406H32.7871V54.2559H36.5371V54.168C36.5371 53.6992 36.4102 53.3047 36.1562 52.9844C35.9023 52.6641 35.5156 52.5039 34.9961 52.5039C34.4141 52.5039 33.9746 52.7246 33.6777 53.166C33.3848 53.6074 33.2383 54.1484 33.2383 54.7891V54.9766C33.2383 55.6172 33.3926 56.1582 33.7012 56.5996C34.0137 57.041 34.4961 57.2617 35.1484 57.2617C35.5508 57.2617 35.8965 57.1758 36.1855 57.0039C36.4746 56.832 36.709 56.6289 36.8887 56.3945L37.6094 56.9746C37.4102 57.2676 37.0996 57.541 36.6777 57.7949C36.2598 58.0488 35.75 58.1758 35.1484 58.1758C34.1641 58.1758 33.4102 57.8789 32.8867 57.2852C32.3633 56.6875 32.1016 55.918 32.1016 54.9766ZM38.998 58V51.7656H40.0059L40.0527 52.5684H40.0879C40.248 52.3066 40.459 52.0781 40.7207 51.8828C40.9863 51.6875 41.3008 51.5898 41.6641 51.5898C41.75 51.5898 41.8398 51.5996 41.9336 51.6191C42.0312 51.6387 42.0996 51.6562 42.1387 51.6719V52.709C42.0605 52.6934 41.9766 52.6816 41.8867 52.6738C41.8008 52.666 41.7051 52.6621 41.5996 52.6621C41.2363 52.6621 40.9277 52.7559 40.6738 52.9434C40.4199 53.1309 40.2324 53.3613 40.1113 53.6348V58H38.998ZM42.6953 54.9766V54.7891C42.6953 53.8789 42.9355 53.1289 43.416 52.5391C43.8965 51.9453 44.5391 51.6484 45.3438 51.6484C45.7852 51.6484 46.1621 51.7266 46.4746 51.8828C46.791 52.0352 47.041 52.2402 47.2246 52.498V49H48.3379V58H47.3301L47.2832 57.1855H47.248C47.0879 57.4434 46.8398 57.6641 46.5039 57.8477C46.1719 58.0273 45.7852 58.1172 45.3438 58.1172C44.5391 58.1172 43.8965 57.8203 43.416 57.2266C42.9355 56.6328 42.6953 55.8828 42.6953 54.9766ZM43.832 54.9766C43.832 55.6016 43.9727 56.1289 44.2539 56.5586C44.5391 56.9844 44.9824 57.1973 45.584 57.1973C45.9902 57.1973 46.334 57.0898 46.6152 56.875C46.8965 56.6562 47.0996 56.4102 47.2246 56.1367V53.6289C47.0996 53.3516 46.8965 53.1055 46.6152 52.8906C46.334 52.6719 45.9902 52.5625 45.584 52.5625C44.9824 52.5625 44.5391 52.7773 44.2539 53.207C43.9727 53.6328 43.832 54.1602 43.832 54.7891V54.9766ZM49.7031 54.9766V54.7891C49.7031 53.8477 49.9648 53.0801 50.4883 52.4863C51.0117 51.8887 51.7051 51.5898 52.5684 51.5898C53.4316 51.5898 54.0957 51.8691 54.5605 52.4277C55.0293 52.9824 55.2637 53.7344 55.2637 54.6836V55.1406H50.3887V54.2559H54.1387V54.168C54.1387 53.6992 54.0117 53.3047 53.7578 52.9844C53.5039 52.6641 53.1172 52.5039 52.5977 52.5039C52.0156 52.5039 51.5762 52.7246 51.2793 53.166C50.9863 53.6074 50.8398 54.1484 50.8398 54.7891V54.9766C50.8398 55.6172 50.9941 56.1582 51.3027 56.5996C51.6152 57.041 52.0977 57.2617 52.75 57.2617C53.1523 57.2617 53.498 57.1758 53.7871 57.0039C54.0762 56.832 54.3105 56.6289 54.4902 56.3945L55.2109 56.9746C55.0117 57.2676 54.7012 57.541 54.2793 57.7949C53.8613 58.0488 53.3516 58.1758 52.75 58.1758C51.7656 58.1758 51.0117 57.8789 50.4883 57.2852C49.9648 56.6875 49.7031 55.918 49.7031 54.9766Z" fill="#1A1A1A"/>
</svg>
