<svg width="167" height="167" viewBox="0 0 167 167" fill="none" xmlns="http://www.w3.org/2000/svg">
<path fill-rule="evenodd" clip-rule="evenodd" d="M166.458 83.5C166.458 107.838 155.977 129.729 139.283 144.904C138.773 145.872 137.977 146.703 136.939 147.257C136.687 147.391 136.431 147.503 136.17 147.596C121.845 159.382 103.499 166.458 83.5 166.458C63.5009 166.458 45.1548 159.382 30.829 147.596C30.5691 147.503 30.3129 147.39 30.0622 147.257C29.0242 146.704 28.229 145.873 27.7192 144.906C11.0234 129.731 0.541656 107.839 0.541656 83.5C0.541656 37.6833 37.6834 0.541626 83.5 0.541626C129.317 0.541626 166.458 37.6833 166.458 83.5ZM83.5 155.146C99.7387 155.146 114.716 149.743 126.731 140.638C117.448 126.649 101.549 117.437 83.5005 117.437C65.4517 117.437 49.5529 126.649 40.2692 140.638C52.2849 149.744 67.2616 155.146 83.5 155.146ZM89.1562 106.375C108.224 108.066 124.852 118.225 135.248 133.051C147.573 120.183 155.146 102.726 155.146 83.5C155.146 43.9311 123.069 11.8541 83.5 11.8541C43.9311 11.8541 11.8542 43.9311 11.8542 83.5C11.8542 102.726 19.427 120.183 31.7526 133.051C42.1487 118.226 58.7758 108.066 77.8437 106.375V92.8445C72.8589 92.6856 68.4854 92.2789 64.7057 91.4675C59.4922 90.3482 54.9989 88.3737 51.5468 84.8378C48.1019 81.3092 46.2476 76.7918 45.2179 71.6553C44.2 66.5781 43.9062 60.467 43.9062 53.3333V47.677H49.5625C56.9585 47.677 63.2084 48.0314 68.3567 49.1366C73.5703 50.2559 78.0636 52.2304 81.5156 55.7663C81.6983 55.9534 81.8765 56.1433 82.0503 56.3359C83.352 53.3212 85.0654 50.6305 87.3301 48.3097C91.5817 43.9527 97.196 41.493 103.935 40.0877C110.61 38.6957 118.83 38.25 128.75 38.25H134.406V43.9062C134.406 53.4817 134.041 61.5214 132.762 68.1096C131.472 74.7552 129.164 80.4035 124.92 84.7527C120.668 89.1097 115.054 91.5694 108.315 92.9747C102.952 94.093 96.5932 94.6006 89.1562 94.7569V106.375ZM123.04 49.6222C122.903 56.3132 122.493 61.6503 121.657 65.9535C120.607 71.36 118.976 74.6458 116.823 76.852C114.678 79.0505 111.438 80.7677 106.006 81.9004C101.642 82.8105 96.1603 83.2838 89.2101 83.4402C89.3468 76.7492 89.7574 71.4121 90.5928 67.1089C91.6425 61.7024 93.2736 58.4166 95.4265 56.2104C97.5718 54.0119 100.812 52.2947 106.244 51.162C110.608 50.2519 116.09 49.7786 123.04 49.6222ZM56.3097 69.4317C55.7551 66.6653 55.4409 63.2776 55.3033 59.0818C59.6774 59.2368 63.1685 59.593 65.9822 60.1971C69.8662 61.0309 72.0344 62.2486 73.421 63.6689C74.8148 65.0965 75.9763 67.2995 76.7527 71.1724C77.3073 73.9388 77.6216 77.3265 77.7591 81.5223C73.385 81.3673 69.8939 81.011 67.0802 80.407C63.1962 79.5731 61.028 78.3555 59.6414 76.9352C58.2476 75.5076 57.0861 73.3046 56.3097 69.4317Z" fill="#36803A"/>
</svg>
