<?xml version="1.0" encoding="UTF-8"?>
<svg xmlns="http://www.w3.org/2000/svg" version="1.1" viewBox="0 0 850.4 235.1">
  <defs>
    <style>
      .cls-1 {
        fill: #36803a;
      }

      .cls-2 {
        fill: #c0a879;
      }
    </style>
  </defs>
  <!-- Generator: Adobe Illustrator 28.7.8, SVG Export Plug-In . SVG Version: 1.2.0 Build 200)  -->
  <g>
    <g id="Capa_1">
      <g id="Capa_2">
        <g>
          <path class="cls-1" d="M232.1,142.9s-3.2-25.8,22.6-29l-1,5.6,15.9-9.8-10.2-16.1-.9,5.8s-23.1-.5-34.5,17.1c-10.3,16-5.4,31.5-5.4,31.5l5.1-9.6,8.4,4.4h0Z"/>
          <path class="cls-1" d="M265.5,115.6s23.9,10.2,13.8,34l-4.4-3.7.5,18.6,19-.8-4.5-3.7s12-19.7,2.5-38.4c-8.7-16.9-24.6-20.5-24.6-20.5l5.8,9.3-8,5.1h0Z"/>
          <path class="cls-1" d="M272.3,157.8s-20.6,15.9-36.4-4.7l5.3-2-16.5-8.7-8.7,17,5.4-2.1s11.3,20.1,32.2,21c19,.7,29.9-11.4,29.9-11.4l-10.9.5-.5-9.5h0Z"/>
        </g>
      </g>
      <g>
        <path class="cls-1" d="M103.2,85.6h-49v26.4h45.1c3.3,0,5.8.8,7.4,2.2,1.6,1.5,2.4,3.5,2.4,5.9s-.8,4.4-2.4,6-4.1,2.3-7.5,2.3h-45.1v30.5h50.7c3.4,0,6,.8,7.7,2.4,1.7,1.6,2.6,3.7,2.6,6.3s-.9,4.6-2.6,6.2c-1.7,1.6-4.3,2.4-7.7,2.4h-59.1c-4.7,0-8.1-1.1-10.2-3.1-2.1-2.1-3.1-5.5-3.1-10.2v-80.7c0-3.1.5-5.7,1.4-7.7.9-2,2.4-3.4,4.4-4.3s4.5-1.3,7.6-1.3h57.4c3.5,0,6,.8,7.7,2.3s2.5,3.6,2.5,6-.8,4.6-2.5,6.1-4.3,2.3-7.7,2.3h0Z"/>
        <path class="cls-1" d="M202.8,153.3c0,2.5-.8,5.1-2.2,8-1.5,2.8-3.8,5.5-6.8,8.1s-6.9,4.6-11.5,6.2-9.9,2.3-15.7,2.3c-12.4,0-22-3.6-28.9-10.8-6.9-7.2-10.4-16.9-10.4-29s1.6-15.4,4.8-21.8,7.8-11.2,13.8-14.6,13.2-5.2,21.5-5.2,9.9.8,14.2,2.3c4.3,1.5,8,3.5,11,5.9,3,2.4,5.3,4.9,6.9,7.7,1.6,2.7,2.4,5.2,2.4,7.6s-.9,4.4-2.7,6.1-3.9,2.5-6.5,2.5-3-.4-4.1-1.3c-1.1-.8-2.3-2.2-3.7-4.1-2.4-3.7-5-6.5-7.6-8.3-2.7-1.8-6-2.8-10.1-2.8-5.9,0-10.7,2.3-14.3,6.9s-5.4,10.9-5.4,18.9.5,7.2,1.4,10.4,2.3,5.8,4,8.1,3.9,3.9,6.4,5.1c2.5,1.1,5.2,1.7,8.2,1.7s7.4-.9,10.3-2.8,5.4-4.7,7.6-8.5c1.2-2.2,2.5-4,4-5.3,1.4-1.3,3.1-1.9,5.2-1.9s4.5.9,6.1,2.8c1.6,1.9,2.4,3.8,2.4,5.9h0Z"/>
        <path class="cls-2" d="M348.5,160l-17.2-68.4v74.1c0,4.1-.9,7.2-2.8,9.2s-4.3,3.1-7.3,3.1-5.3-1-7.2-3-2.8-5.1-2.8-9.3v-85c0-4.7,1.2-7.8,3.7-9.5,2.4-1.6,5.7-2.4,9.9-2.4h6.7c4,0,7,.4,8.8,1.1s3.2,2.1,4.1,4,1.9,5,3,9.3l15.6,58.8,15.6-58.8c1.1-4.3,2.1-7.4,3-9.3s2.2-3.2,4.1-4,4.8-1.1,8.8-1.1h6.7c4.1,0,7.5.8,9.9,2.4,2.4,1.6,3.7,4.8,3.7,9.5v85c0,4.1-.9,7.2-2.8,9.2s-4.3,3.1-7.4,3.1-5.2-1-7.1-3.1c-1.9-2.1-2.8-5.1-2.8-9.2v-74.1l-17.2,68.4c-1.1,4.4-2,7.7-2.8,9.8s-2,4-3.9,5.7-4.5,2.6-7.9,2.6-4.7-.6-6.5-1.6-3.1-2.5-4.1-4.2c-1-1.7-1.8-3.6-2.3-5.7-.6-2.1-1.1-4.2-1.7-6.5h0Z"/>
        <path class="cls-2" d="M486.3,166.7c-4.8,3.8-9.5,6.6-14,8.5s-9.6,2.8-15.2,2.8-9.6-1-13.5-3-6.9-4.8-9-8.2-3.1-7.2-3.1-11.3,1.7-10.1,5.2-14,8.2-6.4,14.3-7.8c1.3-.3,4.4-.9,9.5-2s9.3-2,12.9-2.8c3.6-.9,7.5-1.9,11.7-3.1-.2-5.3-1.3-9.1-3.2-11.6-1.9-2.5-5.8-3.7-11.7-3.7s-8.9.7-11.5,2.1c-2.6,1.4-4.8,3.5-6.6,6.4s-3.1,4.7-3.9,5.6-2.4,1.3-4.9,1.3-4.2-.7-5.8-2.2c-1.6-1.4-2.5-3.3-2.5-5.5,0-3.5,1.2-6.9,3.7-10.2s6.4-6.1,11.6-8.2c5.3-2.2,11.8-3.2,19.7-3.2s15.7,1,20.7,3.1c5,2.1,8.6,5.4,10.7,9.8,2.1,4.5,3.1,10.4,3.1,17.9s0,8.7,0,11.9,0,6.9-.1,10.9c0,3.8.6,7.7,1.9,11.8,1.2,4.1,1.9,6.7,1.9,7.9,0,2.1-1,3.9-2.9,5.6-1.9,1.7-4.1,2.5-6.6,2.5s-4.1-1-6.1-2.9-4.1-4.7-6.4-8.4h0ZM485,137.8c-2.9,1.1-7.2,2.2-12.8,3.4s-9.5,2.1-11.6,2.6-4.2,1.7-6.1,3.3c-2,1.6-2.9,3.9-2.9,6.9s1.1,5.6,3.4,7.7c2.3,2.1,5.3,3.2,9,3.2s7.6-.9,11-2.6c3.3-1.7,5.8-4,7.4-6.7,1.8-3,2.7-8,2.7-14.9v-2.9h0Z"/>
        <path class="cls-2" d="M544.8,149.2v16.7c0,4.1-1,7.1-2.9,9.1s-4.3,3-7.2,3-5.2-1-7.1-3.1c-1.9-2.1-2.8-5.1-2.8-9.1v-55.7c0-9,3.2-13.5,9.7-13.5s5.7,1.1,7.2,3.2c1.5,2.1,2.3,5.2,2.4,9.3,2.4-4.1,4.8-7.2,7.4-9.3,2.5-2.1,5.9-3.2,10.1-3.2s8.3,1.1,12.2,3.2c4,2.1,5.9,4.9,5.9,8.3s-.8,4.5-2.5,6c-1.7,1.6-3.5,2.4-5.5,2.4s-2.5-.4-5.3-1.3-5.3-1.3-7.4-1.3-5.3.8-7.2,2.3-3.3,3.8-4.3,6.8c-1,3-1.7,6.6-2.1,10.8s-.6,9.3-.6,15.3h0Z"/>
        <path class="cls-2" d="M636.7,168.9l-17.7-29-10.8,10.2v15.9c0,3.9-1,6.8-3,8.9-2,2.1-4.4,3.1-7,3.1s-5.5-1-7.2-3.1-2.6-5.1-2.6-9.1v-85.2c0-4.4.8-7.8,2.6-10.1s4.2-3.5,7.3-3.5,5.5,1.1,7.3,3.2c1.8,2.1,2.7,5.2,2.7,9.3v48.5l22.5-23.6c2.8-2.9,4.9-4.9,6.4-6,1.5-1.1,3.2-1.6,5.3-1.6s4.6.8,6.2,2.4,2.5,3.6,2.5,6-2.7,6.8-8.1,11.7l-10.6,9.7,20.5,32.2c1.5,2.4,2.6,4.2,3.3,5.5.7,1.2,1,2.4,1,3.6,0,3.2-.9,5.7-2.6,7.5s-4,2.8-6.8,2.8-4.3-.7-5.6-2-3.1-3.7-5.3-7.2h0Z"/>
        <path class="cls-2" d="M722.9,142.3h-39.1c0,4.5,1,8.6,2.8,12,1.8,3.5,4.2,6.1,7.1,7.8s6.2,2.6,9.8,2.6,4.6-.3,6.6-.8,3.9-1.4,5.8-2.6,3.6-2.5,5.1-3.9c1.6-1.4,3.6-3.2,6.1-5.6,1-.9,2.5-1.3,4.4-1.3s3.7.6,5,1.7c1.3,1.1,1.9,2.7,1.9,4.8s-.7,3.9-2.1,6.3c-1.4,2.4-3.5,4.7-6.4,7s-6.5,4.1-10.8,5.5c-4.3,1.5-9.3,2.2-14.9,2.2-12.8,0-22.8-3.7-30-11-7.1-7.3-10.7-17.3-10.7-29.8s.9-11.4,2.6-16.4,4.3-9.4,7.7-13,7.5-6.4,12.5-8.3,10.4-2.9,16.4-2.9,14.5,1.7,20.1,4.9,9.8,7.6,12.6,12.8c2.8,5.2,4.2,10.6,4.2,16s-1.4,8.3-4.3,9.8-6.9,2.2-12.2,2.2h0ZM683.8,130.9h36.2c-.5-6.8-2.3-11.9-5.5-15.3s-7.4-5.1-12.6-5.1-9.1,1.7-12.3,5.2-5.1,8.5-5.8,15.3h0Z"/>
        <path class="cls-2" d="M757.4,98.5h2.2v-12c0-3.2,0-5.8.3-7.6s.7-3.4,1.4-4.7c.8-1.4,1.9-2.5,3.4-3.3,1.5-.8,3.1-1.3,4.9-1.3s4.8.9,6.9,2.9c1.4,1.3,2.2,2.8,2.6,4.7s.5,4.4.5,7.8v13.6h7.3c2.8,0,5,.7,6.5,2,1.5,1.3,2.2,3.1,2.2,5.2s-1.1,4.6-3.2,5.6c-2.1,1.1-5.2,1.6-9.1,1.6h-3.7v36.8c0,3.1.1,5.5.3,7.2.2,1.7.8,3.1,1.8,4.1s2.5,1.6,4.7,1.6,2.8-.2,4.8-.6c2-.4,3.6-.6,4.7-.6,1.6,0,3.1.6,4.4,1.9,1.3,1.3,1.9,2.9,1.9,4.8,0,3.2-1.8,5.7-5.3,7.4s-8.6,2.6-15.2,2.6-11-1.1-14.2-3.1-5.3-5-6.3-8.7c-1-3.7-1.5-8.7-1.5-14.9v-38.4h-2.6c-2.9,0-5.1-.7-6.6-2.1s-2.3-3.1-2.3-5.2.8-3.8,2.4-5.2c1.6-1.3,3.9-2,6.9-2h0Z"/>
      </g>
    </g>
  </g>
</svg>