<svg width="80" height="62" viewBox="0 0 80 62" fill="none" xmlns="http://www.w3.org/2000/svg">
<path fill-rule="evenodd" clip-rule="evenodd" d="M44.696 2C43.6346 2 42.758 2.82923 42.6991 3.88906L42.3318 10.5L41.6667 10.5V8.00001C41.6667 7.61476 41.4454 7.26377 41.0978 7.0977C40.7501 6.93162 40.338 6.98 40.0383 7.22207L37.3333 9.40688V8.00001C37.3333 7.61476 37.112 7.26377 36.7644 7.0977C36.4168 6.93162 36.0047 6.98 35.705 7.22207L31.3717 10.7221C31.1366 10.9119 31 11.1979 31 11.5V20H30V22H31.9952L32 22H48L48.0048 22H50V20H49V11.5C49 11.3998 48.9852 11.303 48.9578 11.2117L48.551 3.88906C48.4921 2.82923 47.6155 2 46.5541 2H44.696ZM46.9152 10.5L46.5541 4L44.696 4L44.3349 10.5L46.9152 10.5ZM47 12.5V20H44.125V16C44.125 15.1025 43.3975 14.375 42.5 14.375H37.5C36.6025 14.375 35.875 15.1025 35.875 16V20H33V11.9778L35.3333 10.0931V11.5C35.3333 11.8853 35.5546 12.2362 35.9023 12.4023C36.2499 12.5684 36.662 12.52 36.9617 12.278L39.6667 10.0931V11.5C39.6667 12.0523 40.1144 12.5 40.6667 12.5L47 12.5ZM37.125 20V16C37.125 15.7929 37.2929 15.625 37.5 15.625H39.375V20H40.625V15.625H42.5C42.7071 15.625 42.875 15.7929 42.875 16V20H37.125Z" fill="#0B0B0B"/>
<path d="M9.23242 42V33.4688H14.6289V34.418H10.3809V37.3066H14.043V38.2559H10.3809V42H9.23242ZM15.3027 40.166C15.3027 39.5332 15.5566 39.041 16.0645 38.6895C16.5762 38.334 17.2266 38.1562 18.0156 38.1562H19.457V37.7109C19.457 37.3438 19.3574 37.0469 19.1582 36.8203C18.959 36.5898 18.6172 36.4746 18.1328 36.4746C17.6484 36.4746 17.3008 36.5723 17.0898 36.7676C16.8828 36.9629 16.7793 37.1895 16.7793 37.4473V37.4766H15.6719V37.4473C15.6719 36.9512 15.8965 36.5176 16.3457 36.1465C16.7949 35.7754 17.4004 35.5898 18.1621 35.5898C18.9277 35.5898 19.5195 35.7676 19.9375 36.123C20.3594 36.4785 20.5703 37.0078 20.5703 37.7109V40.5938C20.5703 40.8477 20.5898 41.0879 20.6289 41.3145C20.668 41.5371 20.7246 41.7344 20.7988 41.9062V42H19.7207C19.6621 41.9023 19.6094 41.7734 19.5625 41.6133C19.5195 41.4531 19.4922 41.2949 19.4805 41.1387C19.332 41.3965 19.0898 41.625 18.7539 41.8242C18.4219 42.0195 17.9922 42.1172 17.4648 42.1172C16.8672 42.1172 16.3574 41.9492 15.9355 41.6133C15.5137 41.2773 15.3027 40.7949 15.3027 40.166ZM16.416 40.1074C16.416 40.459 16.5215 40.7344 16.7324 40.9336C16.9434 41.1289 17.2695 41.2266 17.7109 41.2266C18.1562 41.2266 18.5586 41.0781 18.918 40.7812C19.2773 40.4844 19.457 40.1699 19.457 39.8379V38.9531H18.1328C17.5703 38.9531 17.1426 39.0566 16.8496 39.2637C16.5605 39.4707 16.416 39.752 16.416 40.1074ZM17.1484 34.2305L18.5898 32.4258L19.5039 33.1055L17.7344 34.7344L17.1484 34.2305ZM22.2871 42V33H23.4004V36.498C23.5879 36.2402 23.8379 36.0352 24.1504 35.8828C24.4629 35.7266 24.8418 35.6484 25.2871 35.6484C26.0879 35.6484 26.7285 35.9453 27.209 36.5391C27.6895 37.1289 27.9297 37.8789 27.9297 38.7891V38.9766C27.9297 39.8828 27.6895 40.6328 27.209 41.2266C26.7285 41.8203 26.0879 42.1172 25.2871 42.1172C24.8418 42.1172 24.4512 42.0273 24.1152 41.8477C23.7832 41.6641 23.5371 41.4434 23.377 41.1855H23.3418L23.2949 42H22.2871ZM23.4004 40.1367C23.5254 40.4102 23.7285 40.6562 24.0098 40.875C24.2949 41.0898 24.6387 41.1973 25.041 41.1973C25.6465 41.1973 26.0898 40.9844 26.3711 40.5586C26.6523 40.1289 26.793 39.6016 26.793 38.9766V38.7891C26.793 38.1602 26.6523 37.6328 26.3711 37.207C26.0898 36.7773 25.6465 36.5625 25.041 36.5625C24.6387 36.5625 24.2949 36.6719 24.0098 36.8906C23.7285 37.1055 23.5254 37.3516 23.4004 37.6289V40.1367ZM29.2949 42V35.7656H30.3027L30.3496 36.5684H30.3848C30.5449 36.3066 30.7559 36.0781 31.0176 35.8828C31.2832 35.6875 31.5977 35.5898 31.9609 35.5898C32.0469 35.5898 32.1367 35.5996 32.2305 35.6191C32.3281 35.6387 32.3965 35.6562 32.4355 35.6719V36.709C32.3574 36.6934 32.2734 36.6816 32.1836 36.6738C32.0977 36.666 32.002 36.6621 31.8965 36.6621C31.5332 36.6621 31.2246 36.7559 30.9707 36.9434C30.7168 37.1309 30.5293 37.3613 30.4082 37.6348V42H29.2949ZM33.5312 42V35.7656H34.6445V42H33.5312ZM33.4023 33.9141C33.4023 33.7305 33.4609 33.5762 33.5781 33.4512C33.6992 33.3223 33.8691 33.2578 34.0879 33.2578C34.3066 33.2578 34.4746 33.3223 34.5918 33.4512C34.7129 33.5762 34.7734 33.7305 34.7734 33.9141C34.7734 34.1016 34.7129 34.2598 34.5918 34.3887C34.4746 34.5137 34.3066 34.5762 34.0879 34.5762C33.8691 34.5762 33.6992 34.5137 33.5781 34.3887C33.4609 34.2598 33.4023 34.1016 33.4023 33.9141ZM36.0625 38.9766V38.7891C36.0625 37.8477 36.3223 37.0801 36.8418 36.4863C37.3613 35.8887 38.0781 35.5898 38.9922 35.5898C39.8359 35.5898 40.4766 35.8145 40.9141 36.2637C41.3516 36.709 41.5703 37.207 41.5703 37.7578V37.7871H40.4922V37.7578C40.4922 37.4297 40.373 37.1387 40.1348 36.8848C39.8965 36.6309 39.5156 36.5039 38.9922 36.5039C38.3789 36.5039 37.9258 36.7246 37.6328 37.166C37.3438 37.6074 37.1992 38.1484 37.1992 38.7891V38.9766C37.1992 39.6172 37.3438 40.1582 37.6328 40.5996C37.9258 41.041 38.3789 41.2617 38.9922 41.2617C39.5156 41.2617 39.8965 41.1348 40.1348 40.8809C40.373 40.627 40.4922 40.334 40.4922 40.002V39.9727H41.5703V40.002C41.5703 40.5566 41.3516 41.0586 40.9141 41.5078C40.4766 41.9531 39.8359 42.1758 38.9922 42.1758C38.0781 42.1758 37.3613 41.8789 36.8418 41.2852C36.3223 40.6875 36.0625 39.918 36.0625 38.9766ZM42.5137 40.166C42.5137 39.5332 42.7676 39.041 43.2754 38.6895C43.7871 38.334 44.4375 38.1562 45.2266 38.1562H46.668V37.7109C46.668 37.3438 46.5684 37.0469 46.3691 36.8203C46.1699 36.5898 45.8281 36.4746 45.3438 36.4746C44.8594 36.4746 44.5117 36.5723 44.3008 36.7676C44.0938 36.9629 43.9902 37.1895 43.9902 37.4473V37.4766H42.8828V37.4473C42.8828 36.9512 43.1074 36.5176 43.5566 36.1465C44.0059 35.7754 44.6113 35.5898 45.373 35.5898C46.1387 35.5898 46.7305 35.7676 47.1484 36.123C47.5703 36.4785 47.7812 37.0078 47.7812 37.7109V40.5938C47.7812 40.8477 47.8008 41.0879 47.8398 41.3145C47.8789 41.5371 47.9355 41.7344 48.0098 41.9062V42H46.9316C46.873 41.9023 46.8203 41.7734 46.7734 41.6133C46.7305 41.4531 46.7031 41.2949 46.6914 41.1387C46.543 41.3965 46.3008 41.625 45.9648 41.8242C45.6328 42.0195 45.2031 42.1172 44.6758 42.1172C44.0781 42.1172 43.5684 41.9492 43.1465 41.6133C42.7246 41.2773 42.5137 40.7949 42.5137 40.166ZM43.627 40.1074C43.627 40.459 43.7324 40.7344 43.9434 40.9336C44.1543 41.1289 44.4805 41.2266 44.9219 41.2266C45.3672 41.2266 45.7695 41.0781 46.1289 40.7812C46.4883 40.4844 46.668 40.1699 46.668 39.8379V38.9531H45.3438C44.7812 38.9531 44.3535 39.0566 44.0605 39.2637C43.7715 39.4707 43.627 39.752 43.627 40.1074ZM52.5566 42V33.4688H58.0234V34.418H53.7051V37.125H57.4785V38.0742H53.7051V41.0508H58.082V42H52.5566ZM58.8672 38.9766V38.7891C58.8672 37.8477 59.127 37.0801 59.6465 36.4863C60.166 35.8887 60.8828 35.5898 61.7969 35.5898C62.6406 35.5898 63.2812 35.8145 63.7188 36.2637C64.1562 36.709 64.375 37.207 64.375 37.7578V37.7871H63.2969V37.7578C63.2969 37.4297 63.1777 37.1387 62.9395 36.8848C62.7012 36.6309 62.3203 36.5039 61.7969 36.5039C61.1836 36.5039 60.7305 36.7246 60.4375 37.166C60.1484 37.6074 60.0039 38.1484 60.0039 38.7891V38.9766C60.0039 39.6172 60.1484 40.1582 60.4375 40.5996C60.7305 41.041 61.1836 41.2617 61.7969 41.2617C62.3203 41.2617 62.7012 41.1348 62.9395 40.8809C63.1777 40.627 63.2969 40.334 63.2969 40.002V39.9727H64.375V40.002C64.375 40.5566 64.1562 41.0586 63.7188 41.5078C63.2812 41.9531 62.6406 42.1758 61.7969 42.1758C60.8828 42.1758 60.166 41.8789 59.6465 41.2852C59.127 40.6875 58.8672 39.918 58.8672 38.9766ZM65.2891 38.9766V38.7891C65.2891 37.8477 65.5605 37.0801 66.1035 36.4863C66.6465 35.8887 67.3711 35.5898 68.2773 35.5898C69.1836 35.5898 69.9082 35.8887 70.4512 36.4863C70.9941 37.0801 71.2656 37.8477 71.2656 38.7891V38.9766C71.2656 39.918 70.9941 40.6875 70.4512 41.2852C69.9082 41.8789 69.1836 42.1758 68.2773 42.1758C67.3711 42.1758 66.6465 41.8789 66.1035 41.2852C65.5605 40.6875 65.2891 39.918 65.2891 38.9766ZM66.4258 38.7891V38.9766C66.4258 39.6133 66.5801 40.1523 66.8887 40.5938C67.2012 41.0352 67.6641 41.2559 68.2773 41.2559C68.8906 41.2559 69.3516 41.0352 69.6602 40.5938C69.9688 40.1523 70.123 39.6133 70.123 38.9766V38.7891C70.123 38.1484 69.9688 37.6074 69.6602 37.166C69.3516 36.7246 68.8906 36.5039 68.2773 36.5039C67.6641 36.5039 67.2012 36.7246 66.8887 37.166C66.5801 37.6074 66.4258 38.1484 66.4258 38.7891ZM19.6562 58V49.4688H25.0527V50.418H20.8047V53.3066H24.4668V54.2559H20.8047V58H19.6562ZM26.1133 58V51.7656H27.1211L27.168 52.5684H27.2031C27.3633 52.3066 27.5742 52.0781 27.8359 51.8828C28.1016 51.6875 28.416 51.5898 28.7793 51.5898C28.8652 51.5898 28.9551 51.5996 29.0488 51.6191C29.1465 51.6387 29.2148 51.6562 29.2539 51.6719V52.709C29.1758 52.6934 29.0918 52.6816 29.002 52.6738C28.916 52.666 28.8203 52.6621 28.7148 52.6621C28.3516 52.6621 28.043 52.7559 27.7891 52.9434C27.5352 53.1309 27.3477 53.3613 27.2266 53.6348V58H26.1133ZM30.3496 58V51.7656H31.4629V58H30.3496ZM30.2207 49.9141C30.2207 49.7305 30.2793 49.5762 30.3965 49.4512C30.5176 49.3223 30.6875 49.2578 30.9062 49.2578C31.125 49.2578 31.293 49.3223 31.4102 49.4512C31.5312 49.5762 31.5918 49.7305 31.5918 49.9141C31.5918 50.1016 31.5312 50.2598 31.4102 50.3887C31.293 50.5137 31.125 50.5762 30.9062 50.5762C30.6875 50.5762 30.5176 50.5137 30.3965 50.3887C30.2793 50.2598 30.2207 50.1016 30.2207 49.9141ZM32.8809 54.9766V54.7891C32.8809 53.8477 33.1426 53.0801 33.666 52.4863C34.1895 51.8887 34.8828 51.5898 35.7461 51.5898C36.6094 51.5898 37.2734 51.8691 37.7383 52.4277C38.207 52.9824 38.4414 53.7344 38.4414 54.6836V55.1406H33.5664V54.2559H37.3164V54.168C37.3164 53.6992 37.1895 53.3047 36.9355 52.9844C36.6816 52.6641 36.2949 52.5039 35.7754 52.5039C35.1934 52.5039 34.7539 52.7246 34.457 53.166C34.1641 53.6074 34.0176 54.1484 34.0176 54.7891V54.9766C34.0176 55.6172 34.1719 56.1582 34.4805 56.5996C34.793 57.041 35.2754 57.2617 35.9277 57.2617C36.3301 57.2617 36.6758 57.1758 36.9648 57.0039C37.2539 56.832 37.4883 56.6289 37.668 56.3945L38.3887 56.9746C38.1895 57.2676 37.8789 57.541 37.457 57.7949C37.0391 58.0488 36.5293 58.1758 35.9277 58.1758C34.9434 58.1758 34.1895 57.8789 33.666 57.2852C33.1426 56.6875 32.8809 55.918 32.8809 54.9766ZM39.7773 58V51.7656H40.7852L40.832 52.5742H40.8672C41.0977 52.2812 41.3789 52.0547 41.7109 51.8945C42.043 51.7305 42.4121 51.6484 42.8184 51.6484C43.4551 51.6484 43.9629 51.8301 44.3418 52.1934C44.7246 52.5527 44.916 53.1582 44.916 54.0098V58H43.7969V53.998C43.7969 53.4941 43.6816 53.1328 43.4512 52.9141C43.2246 52.6953 42.9023 52.5859 42.4844 52.5859C42.125 52.5859 41.8086 52.6816 41.5352 52.873C41.2617 53.0645 41.0469 53.3105 40.8906 53.6113V58H39.7773ZM46.2285 54.9766V54.7891C46.2285 53.8789 46.4688 53.1289 46.9492 52.5391C47.4297 51.9453 48.0723 51.6484 48.877 51.6484C49.3184 51.6484 49.6953 51.7266 50.0078 51.8828C50.3242 52.0352 50.5742 52.2402 50.7578 52.498V49H51.8711V58H50.8633L50.8164 57.1855H50.7812C50.6211 57.4434 50.373 57.6641 50.0371 57.8477C49.7051 58.0273 49.3184 58.1172 48.877 58.1172C48.0723 58.1172 47.4297 57.8203 46.9492 57.2266C46.4688 56.6328 46.2285 55.8828 46.2285 54.9766ZM47.3652 54.9766C47.3652 55.6016 47.5059 56.1289 47.7871 56.5586C48.0723 56.9844 48.5156 57.1973 49.1172 57.1973C49.5234 57.1973 49.8672 57.0898 50.1484 56.875C50.4297 56.6562 50.6328 56.4102 50.7578 56.1367V53.6289C50.6328 53.3516 50.4297 53.1055 50.1484 52.8906C49.8672 52.6719 49.5234 52.5625 49.1172 52.5625C48.5156 52.5625 48.0723 52.7773 47.7871 53.207C47.5059 53.6328 47.3652 54.1602 47.3652 54.7891V54.9766ZM53.6523 58V49H54.7656V58H53.6523ZM55.9844 60.4375V59.4883C56.0898 59.5195 56.2051 59.5449 56.3301 59.5645C56.459 59.584 56.584 59.5938 56.7051 59.5938C56.9863 59.5938 57.2266 59.5 57.4258 59.3125C57.625 59.1289 57.8457 58.6797 58.0879 57.9648V57.959L55.7383 51.7656H56.8281L58.3223 55.8496C58.377 56.0059 58.4258 56.1562 58.4688 56.3008C58.5156 56.4414 58.5547 56.5762 58.5859 56.7051H58.6211C58.6523 56.5762 58.6914 56.4414 58.7383 56.3008C58.7891 56.1562 58.8398 56.0059 58.8906 55.8496L60.2852 51.7656H61.3398L58.7793 58.8203C58.5762 59.3672 58.3086 59.793 57.9766 60.0977C57.6484 60.4023 57.2441 60.5547 56.7637 60.5547C56.6035 60.5547 56.4609 60.5449 56.3359 60.5254C56.2148 60.5059 56.0977 60.4766 55.9844 60.4375Z" fill="#0B0B0B"/>
</svg>
