<?xml version="1.0" encoding="utf-8"?>
<!-- Generator: Adobe Illustrator 24.2.3, SVG Export Plug-In . SVG Version: 6.00 Build 0)  -->
<svg version="1.1" id="Capa_1" xmlns="http://www.w3.org/2000/svg" xmlns:xlink="http://www.w3.org/1999/xlink" x="0px" y="0px"
	 viewBox="0 0 1440 320" style="enable-background:new 0 0 1440 320;" xml:space="preserve">
<style type="text/css">
	.st0{fill:#F0FEF4;}
</style>
<path class="st0" d="M1440,224l-40-10.7c-40-10.3-120-32.3-200-53.3s-160-43-240-21.3c-80,21.3-160,85.3-240,112
	c-80,26.3-160,16.3-240-16C400,203,320,149,240,144S80,181,40,202.7L0,224V0h40c40,0,120,0,200,0s160,0,240,0s160,0,240,0
	s160,0,240,0s160,0,240,0s160,0,200,0h40V224z"/>
</svg>
