<svg width="80" height="46" viewBox="0 0 80 46" fill="none" xmlns="http://www.w3.org/2000/svg">
<path d="M39.9907 3.00114L39.9888 3.00423L36.05 9.92721C35.7768 10.4072 35.1663 10.575 34.6863 10.3019C34.2062 10.0287 34.0385 9.4182 34.3116 8.93817L38.2505 2.01519C39.0206 0.661597 40.9795 0.661608 41.7496 2.01519L43.7478 5.52717L43.9552 4.81036C44.1086 4.27983 44.6631 3.97418 45.1937 4.12766C45.7242 4.28115 46.0299 4.83565 45.8764 5.36618L45.0114 8.35617C44.8584 8.88493 44.3068 9.19065 43.7774 9.04016L40.7607 8.1828C40.2294 8.03181 39.9212 7.47876 40.0722 6.94751C40.2231 6.41627 40.7762 6.108 41.3075 6.25899L41.9703 6.44737L40.0113 3.00423L40.0094 3.00115C40.0094 3.00115 40.0045 3 40.0001 3C39.9957 3 39.9907 3.00114 39.9907 3.00114Z" fill="#0B0B0B"/>
<path d="M45.531 10.6835C46.011 10.4104 46.6215 10.5781 46.8947 11.0581L50.7374 17.8122C51.5042 19.1599 50.513 20.8005 48.9878 20.8005H44.926L45.4195 21.2897C45.8118 21.6785 45.8146 22.3117 45.4258 22.7039C45.037 23.0962 44.4038 23.099 44.0116 22.7102L41.7925 20.5108C41.603 20.323 41.4965 20.0673 41.4965 19.8005C41.4965 19.5338 41.603 19.2781 41.7925 19.0903L44.0116 16.8908C44.4038 16.502 45.037 16.5049 45.4258 16.8971C45.8146 17.2894 45.8118 17.9225 45.4195 18.3113L44.9259 18.8005H48.9878L48.9932 18.8004L48.9954 18.8001L48.9976 18.7985L45.1563 12.0472C44.8832 11.5671 45.0509 10.9566 45.531 10.6835Z" fill="#0B0B0B"/>
<path d="M30.5449 14.5722L31.2143 14.3819L29.2627 17.8121C28.4959 19.1599 29.4871 20.8005 31.0123 20.8005H38.8906C39.4428 20.8005 39.8906 20.3528 39.8906 19.8005C39.8906 19.2483 39.4428 18.8005 38.8906 18.8005H31.0123C31.0085 18.8005 31.0047 18.8001 31.0047 18.8001L31.0025 18.7985L32.9871 15.3105L33.1926 16.0208C33.3461 16.5514 33.9006 16.857 34.4311 16.7035C34.9616 16.55 35.2673 15.9955 35.1138 15.465L34.2488 12.475C34.0958 11.9463 33.5443 11.6406 33.0148 11.791L29.9981 12.6484C29.4669 12.7994 29.1586 13.3524 29.3096 13.8837C29.4606 14.4149 30.0136 14.7232 30.5449 14.5722Z" fill="#0B0B0B"/>
<path d="M39.5178 16.0996C39.5178 16.3836 39.5931 16.6063 39.7438 16.7676C39.8944 16.9225 40.1078 17 40.3839 17C40.6726 17 40.8891 16.9225 41.0335 16.7676C41.1778 16.6063 41.25 16.3836 41.25 16.0996V10.7455C41.25 10.5906 41.2186 10.4583 41.1559 10.3485C41.0931 10.2324 41.0021 10.1452 40.8829 10.0871C40.7699 10.029 40.6318 10 40.4686 10C40.2992 10 40.1486 10.0226 40.0168 10.0678C39.8912 10.113 39.7594 10.1775 39.6214 10.2614L38.1528 11.1812C37.9771 11.2909 37.861 11.42 37.8045 11.5685C37.748 11.7169 37.7354 11.8654 37.7668 12.0138C37.8045 12.1558 37.8735 12.2785 37.9739 12.3817C38.0743 12.4786 38.1967 12.5367 38.3411 12.556C38.4917 12.5754 38.6517 12.5302 38.8212 12.4205L39.5178 11.9824V16.0996Z" fill="#0B0B0B"/>
<path d="M30.3848 42V33.4688H33.2734C34.2305 33.4688 34.9648 33.7051 35.4766 34.1777C35.9922 34.6504 36.25 35.2793 36.25 36.0645C36.25 36.8496 35.9922 37.4824 35.4766 37.9629C34.9648 38.4434 34.2305 38.6836 33.2734 38.6836H31.5332V42H30.3848ZM31.5332 37.7344H33.2734C33.9492 37.7344 34.4219 37.5723 34.6914 37.248C34.9648 36.9238 35.1016 36.5293 35.1016 36.0645C35.1016 35.5996 34.9648 35.209 34.6914 34.8926C34.4219 34.5762 33.9492 34.418 33.2734 34.418H31.5332V37.7344ZM37.5449 42V33.4688H43.0117V34.418H38.6934V37.125H42.4668V38.0742H38.6934V41.0508H43.0703V42H37.5449ZM43.7324 34.418V33.4688H50.4707V34.418H47.6758V42H46.5273V34.418H43.7324Z" fill="#0B0B0B"/>
</svg>
