<svg width="133" height="132" viewBox="0 0 133 132" fill="none" xmlns="http://www.w3.org/2000/svg">
<path d="M65.9484 12.0254L65.9597 12.0069C65.9705 12.0038 65.9893 12 66.0157 12C66.0421 12 66.0609 12.0038 66.0718 12.0069L66.0831 12.0254L77.8371 32.6842L73.86 31.5538C70.6725 30.6479 67.3542 32.4975 66.4482 35.685C65.5423 38.8725 67.3919 42.1908 70.5794 43.0967L88.6795 48.2409C91.8563 49.1438 95.1656 47.3095 96.0834 44.1369L101.274 26.197C102.194 23.0138 100.36 19.6868 97.1773 18.7659C93.9941 17.845 90.6671 19.6789 89.7462 22.8621L88.502 27.1628L76.5131 6.09116C71.8923 -2.03035 60.1392 -2.03042 55.5184 6.09114L31.8851 47.629C30.2464 50.5092 31.2528 54.1725 34.133 55.8111C37.0131 57.4498 40.6764 56.4434 42.3151 53.5633L65.9484 12.0254Z" fill="#36803A"/>
<path d="M107.383 60.3488C105.745 57.4686 102.081 56.4622 99.2012 58.1009C96.3211 59.7395 95.3146 63.4028 96.9533 66.283L120.001 106.791L119.993 106.8L119.975 106.802L119.942 106.803H95.5711L98.5327 103.868C100.886 101.535 100.903 97.7362 98.5704 95.3827C96.2377 93.0292 92.4387 93.0123 90.0852 95.345L76.7707 108.542C75.6339 109.668 74.9945 111.203 74.9945 112.803C74.9945 114.404 75.6339 115.938 76.7707 117.065L90.0852 130.261C92.4387 132.594 96.2377 132.577 98.5704 130.224C100.903 127.87 100.886 124.071 98.5327 121.738L95.5714 118.803H119.942C129.093 118.803 135.041 108.96 130.44 100.873L107.383 60.3488Z" fill="#36803A"/>
<path d="M13.3015 80.2915L9.28453 81.4332C6.09706 82.3391 2.77872 80.4895 1.87281 77.3021C0.966903 74.1146 2.81648 70.7962 6.00395 69.8903L24.104 64.7461C27.2809 63.8433 30.5901 65.6776 31.508 68.8501L36.6981 86.7901C37.619 89.9732 35.785 93.3002 32.6019 94.2211C29.4187 95.1421 26.0917 93.3081 25.1708 90.125L23.9378 85.8632L12.0306 106.791L12.0381 106.8C12.0461 106.801 12.0663 106.803 12.089 106.803H59.3587C62.6724 106.803 65.3587 109.49 65.3587 112.803C65.3587 116.117 62.6724 118.803 59.3587 118.803H12.089C2.93809 118.803 -3.00936 108.96 1.59158 100.873L13.3015 80.2915Z" fill="#36803A"/>
</svg>
